<?xml version="1.0" encoding="UTF-8"?>
<svg id="_Слой_1" data-name="Слой 1" xmlns="http://www.w3.org/2000/svg" xmlns:xlink="http://www.w3.org/1999/xlink" viewBox="0 0 120 120">
  <defs>
    <style>
      .cls-1 {
        fill: url(#_Безымянный_градиент_25);
      }

      .cls-1, .cls-2 {
        stroke-width: 0px;
      }

      .cls-2 {
        fill: #9b2bef;
      }
    </style>
    <linearGradient id="_Безымянный_градиент_25" data-name="Безымянный градиент 25" x1="34.93" y1="81.93" x2="60.01" y2="57.88" gradientUnits="userSpaceOnUse">
      <stop offset=".18" stop-color="#9b2bef"/>
      <stop offset=".24" stop-color="#a036ef"/>
      <stop offset=".35" stop-color="#ae53f2"/>
      <stop offset=".5" stop-color="#c483f5"/>
      <stop offset=".67" stop-color="#e3c4fa"/>
      <stop offset=".81" stop-color="#fff"/>
    </linearGradient>
  </defs>
  <g>
    <polygon class="cls-2" points="108 56.9 83.77 47.05 93.94 22.96 69.85 33.12 60 8.9 50.15 33.12 26.06 22.96 36.23 47.05 12 56.9 60 56.9 60 104.9 69.85 80.67 93.94 90.84 83.77 66.75 108 56.9"/>
    <polygon class="cls-2" points="12 56.9 36.23 66.75 26.06 90.84 50.15 80.67 60 104.9 60 56.9 12 56.9"/>
  </g>
  <polygon class="cls-1" points="12 56.9 36.23 66.75 45.81 71.08 50.15 80.67 60 104.9 60 56.9 12 56.9"/>
</svg>