<svg width="26" height="37" viewBox="0 0 26 37" fill="none" xmlns="http://www.w3.org/2000/svg">
<path d="M20.4862 14.9364C22.1545 14.9364 23.8228 14.9364 25.486 14.9364C25.6605 14.9364 25.8196 14.9714 25.9274 15.1115C26.0352 15.2465 26.0198 15.5516 25.9018 15.6817C25.2653 16.3869 24.6236 17.0922 23.9871 17.7974C23.2992 18.5627 22.6114 19.328 21.9235 20.0882C21.4205 20.6484 20.9174 21.2036 20.4144 21.7638C20.0037 22.219 19.5879 22.6791 19.1773 23.1343C18.4997 23.8896 17.8272 24.6398 17.1496 25.3951C16.4875 26.1304 15.8253 26.8656 15.1631 27.6009C14.7062 28.1061 14.2494 28.6062 13.7925 29.1064C13.2381 29.7216 12.694 30.3368 12.1396 30.9521C11.5134 31.6523 10.8871 32.3476 10.2557 33.0478C9.63462 33.738 9.0135 34.4233 8.39238 35.1135C7.90473 35.6537 7.42221 36.2039 6.92942 36.7441C6.85242 36.8291 6.75489 36.8992 6.65736 36.9542C6.49823 37.0392 6.3391 36.9992 6.20564 36.8892C6.05677 36.7641 6.02597 36.5991 6.07217 36.419C6.22617 35.8288 6.37503 35.2386 6.52903 34.6534C6.65222 34.1832 6.78569 33.718 6.90889 33.2479C7.00642 32.8827 7.09368 32.5176 7.19121 32.1525C7.27334 31.8374 7.36061 31.5223 7.44274 31.2071C7.54027 30.842 7.6378 30.4769 7.7302 30.1118C7.83286 29.7266 7.93039 29.3465 8.03306 28.9614C8.15112 28.5012 8.27432 28.046 8.39238 27.5859C8.52585 27.0907 8.65931 26.5955 8.78764 26.1003C8.92624 25.5802 9.04943 25.055 9.18803 24.5348C9.33689 23.9746 9.49602 23.4144 9.64489 22.8492C9.75782 22.424 9.86048 21.9989 9.96828 21.5737C9.98881 21.4837 10.0196 21.3937 10.0401 21.3037C10.0761 21.1736 10.0555 21.1486 9.92208 21.1486C9.76808 21.1436 9.61409 21.1436 9.46009 21.1436C6.58549 21.1436 3.71089 21.1486 0.836294 21.1486C0.70283 21.1486 0.569369 21.1486 0.430772 21.1386C0.261376 21.1286 0.122778 21.0536 0.0509131 20.9035C-0.0260851 20.7435 -0.0209519 20.5784 0.102245 20.4383C0.33324 20.1833 0.574501 19.9332 0.805496 19.6781C1.28802 19.1579 1.77054 18.6377 2.25819 18.1225C2.81258 17.5323 3.3721 16.9421 3.92649 16.3519C4.57327 15.6667 5.21492 14.9764 5.86171 14.2912C6.58036 13.5259 7.30414 12.7606 8.02279 11.9954C8.73631 11.2351 9.44469 10.4748 10.1582 9.71956C10.9487 8.87926 11.7392 8.03897 12.5246 7.19867C13.0431 6.64847 13.5564 6.09328 14.0749 5.53808C14.542 5.0379 15.0142 4.53773 15.4865 4.03755C16.0049 3.48736 16.5234 2.93716 17.0418 2.38197C17.5295 1.86178 18.0172 1.3366 18.5048 0.816413C18.7204 0.586331 18.936 0.361252 19.1619 0.141174C19.3261 -0.0188827 19.5571 -0.0388901 19.7265 0.0611452C19.824 0.121166 19.86 0.206197 19.8754 0.311234C19.9062 0.536313 19.8138 0.741386 19.747 0.95146C19.6547 1.25157 19.552 1.54667 19.4596 1.84177C19.3313 2.23691 19.1978 2.63205 19.0746 3.02719C18.9411 3.44234 18.8077 3.85749 18.6742 4.27263C18.5818 4.55273 18.4843 4.83283 18.397 5.11793C18.3046 5.40804 18.2174 5.69814 18.125 5.98824C17.894 6.70349 17.6578 7.42375 17.4217 8.139C17.3139 8.46912 17.2112 8.79923 17.1086 9.12935C16.9648 9.58951 16.8211 10.0547 16.6671 10.5148C16.4567 11.1651 16.2462 11.8103 16.0306 12.4605C15.8253 13.0807 15.6251 13.706 15.4249 14.3262C15.3736 14.4812 15.3274 14.6413 15.2812 14.8014C15.2504 14.9164 15.2709 14.9414 15.389 14.9414C15.7791 14.9414 16.1743 14.9414 16.5645 14.9414C17.8837 14.9414 19.1875 14.9414 20.4862 14.9364Z" fill="black"/>
</svg>
