<svg width="39" height="39" viewBox="0 0 39 39" fill="none" xmlns="http://www.w3.org/2000/svg">
<path d="M19.5 39C30.2696 39 39 30.2696 39 19.5C39 8.73045 30.2696 0 19.5 0C8.73045 0 0 8.73045 0 19.5C0 30.2696 8.73045 39 19.5 39Z" fill="url(#paint0_linear_71_1110)"/>
<path fill-rule="evenodd" clip-rule="evenodd" d="M21.8425 21.1854V21.183C21.7085 21.1927 21.0174 21.2342 19.4757 21.2342C18.2448 21.2342 17.3783 21.1976 17.0736 21.183V21.1866C12.3351 20.9782 8.79825 20.1531 8.79825 19.166C8.79825 18.18 12.3351 17.3549 17.0736 17.1428V20.3652C17.3831 20.3871 18.2704 20.4395 19.4964 20.4395C20.9675 20.4395 21.7048 20.3786 21.8425 20.3664V17.1453C26.5713 17.3561 30.0996 18.1812 30.0996 19.166C30.0996 20.1531 26.5713 20.9758 21.8425 21.1854ZM21.8425 16.8101V13.9265H28.4408V9.5293H10.4753V13.9265H17.0736V16.8089C11.7111 17.0551 7.67822 18.1178 7.67822 19.3902C7.67822 20.6626 11.7111 21.7241 17.0736 21.9715V31.2121H21.8425V21.9691C27.1965 21.7229 31.2196 20.6614 31.2196 19.3902C31.2196 18.119 27.1965 17.0575 21.8425 16.8101Z" fill="black"/>
<defs>
<linearGradient id="paint0_linear_71_1110" x1="-1.42217" y1="3.60877" x2="30.102" y2="40.7887" gradientUnits="userSpaceOnUse">
<stop stop-color="#3A9797"/>
<stop offset="0.27" stop-color="#C4E6FF"/>
<stop offset="0.425" stop-color="#89CABE"/>
<stop offset="0.675" stop-color="#86E6DD"/>
<stop offset="1" stop-color="#6EBAA1"/>
</linearGradient>
</defs>
</svg>
