<svg width="32" height="32" viewBox="0 0 32 32" fill="none" xmlns="http://www.w3.org/2000/svg">
<path d="M16 32C24.8366 32 32 24.8366 32 16C32 7.16344 24.8366 0 16 0C7.16344 0 0 7.16344 0 16C0 24.8366 7.16344 32 16 32Z" fill="black"/>
<path fill-rule="evenodd" clip-rule="evenodd" d="M18.0335 17.6764V17.6743C17.9197 17.6824 17.3326 17.7168 16.0228 17.7168C14.977 17.7168 14.2408 17.6865 13.982 17.6743V17.6774C9.95631 17.5044 6.95154 16.8194 6.95154 15.9999C6.95154 15.1814 9.95631 14.4964 13.982 14.3204V16.9954C14.245 17.0137 14.9988 17.0572 16.0404 17.0572C17.2901 17.0572 17.9165 17.0066 18.0335 16.9965V14.3224C22.0509 14.4974 25.0485 15.1824 25.0485 15.9999C25.0485 16.8194 22.0509 17.5023 18.0335 17.6764ZM18.0335 14.0442V11.6504H23.6393V8H8.37627V11.6504H13.982V14.0432C9.42617 14.2475 6 15.1298 6 16.186C6 17.2423 9.42617 18.1235 13.982 18.3289V26H18.0335V18.3269C22.5821 18.1225 26 17.2413 26 16.186C26 15.1308 22.5821 14.2496 18.0335 14.0442Z" fill="#2181FF"/>
</svg>
